<svg width="20" height="24" viewBox="0 0 20 24" fill="none" xmlns="http://www.w3.org/2000/svg">
<path fill-rule="evenodd" clip-rule="evenodd" d="M6.58958 7.31547C6.10345 6.82934 6.10345 6.04116 6.58958 5.55503C7.07571 5.0689 7.86389 5.0689 8.35002 5.55503L15.6948 12.8999C15.7334 12.835 15.7815 12.6999 15.7815 12.4832C15.7815 12.4103 15.6877 12.1812 15.5561 11.8595C15.0741 10.6819 14.0844 8.26354 15.3288 7.73022C16.4963 7.22986 17.418 9.8022 18.094 11.6885C18.3353 12.3619 18.5452 12.9478 18.7239 13.2753C18.7451 13.3143 18.7671 13.3544 18.7898 13.3956C19.4904 14.67 20.7748 17.0064 17.7054 20.4048C14.5367 23.9129 9.89692 22.2154 8.3126 20.6311C7.58144 19.8999 6.88792 19.1838 6.26683 18.5349C6.26181 18.5301 6.25681 18.5252 6.25185 18.5202L1.61069 13.879C1.12456 13.3929 1.12456 12.6047 1.61069 12.1186C2.09682 11.6325 2.885 11.6325 3.37113 12.1186L6.84618 15.5936L7.01749 15.4387L1.83662 10.2578C1.35049 9.77165 1.35049 8.98347 1.83662 8.49734C2.32275 8.01121 3.11092 8.01121 3.59706 8.49734L8.86595 13.7662L9.03764 13.6109L3.4212 7.99446C2.93507 7.50832 2.93507 6.72015 3.4212 6.23402C3.90733 5.74788 4.6955 5.74788 5.18164 6.23402L10.8861 11.9385L11.0575 11.7834L6.58958 7.31547Z" fill="#EA580C"/>
<path d="M10.3984 2.97168C10.8199 2.95565 11.8222 3.1201 12.4598 3.90618C13.0975 4.69225 13.2726 5.65799 13.2805 6.04259" stroke="#FACC15" stroke-width="1.19251" stroke-linecap="round"/>
<path d="M13.1719 1.29492C13.4326 1.2855 14.0528 1.38965 14.4484 1.8816C14.844 2.37355 14.9537 2.97708 14.9591 3.21735" stroke="#FACC15" stroke-width="1.19251" stroke-linecap="round"/>
<path d="M5.33984 20.6338C4.92207 20.6915 3.90842 20.6271 3.19603 19.9081C2.48365 19.1891 2.21368 18.2454 2.16774 17.8635" stroke="#FACC15" stroke-width="1.19251" stroke-linecap="round"/>
<path d="M2.74414 22.5771C2.48566 22.6123 1.85812 22.5702 1.41575 22.1198C0.973384 21.6695 0.80441 21.0798 0.77522 20.8412" stroke="#FACC15" stroke-width="1.19251" stroke-linecap="round"/>
</svg>
