<?xml version="1.0" encoding="UTF-8"?>
<svg version="1.1" xmlns="http://www.w3.org/2000/svg" width="512" height="512">
<path d="M0 0 C0.99902344 -0.01933594 1.99804688 -0.03867187 3.02734375 -0.05859375 C8.02254447 0.75786763 11.03208678 3.09616905 14.08203125 7.06640625 C14.67371094 8.03449219 15.26539062 9.00257813 15.875 10 C19.8505344 16.22027531 24.26144681 21.83764379 29.0625 27.4375 C29.78308594 28.2934375 30.50367188 29.149375 31.24609375 30.03125 C36.64392235 36.26617501 42.51017506 41.44402884 49.0625 46.4375 C50.10019531 47.24058594 51.13789062 48.04367187 52.20703125 48.87109375 C77.11260423 67.68192723 106.79768625 77.67636992 137.859375 79.09643555 C142.86418608 79.33834304 142.86418608 79.33834304 145.0625 80.4375 C145.04155273 79.52983887 145.02060547 78.62217773 144.99902344 77.68701172 C144.93059067 74.29872358 144.88057705 70.9111765 144.84277344 67.52246094 C144.82273668 66.05977748 144.79549896 64.59717334 144.76074219 63.13476562 C144.71186775 61.0245399 144.68945341 58.91537864 144.671875 56.8046875 C144.65092773 55.53737793 144.62998047 54.27006836 144.60839844 52.96435547 C145.1448933 48.79757867 146.45753271 46.69101432 149.0625 43.4375 C152.59250909 40.74354569 155.63478631 39.69795375 160.0625 39.4375 C166.56782083 40.54306748 170.14538632 42.55921632 174.9375 47 C175.53900879 47.5364917 176.14051758 48.0729834 176.76025391 48.62573242 C178.53950322 50.21710627 180.3016777 51.82579606 182.0625 53.4375 C183.85393913 55.04192076 185.64557768 56.64611891 187.4375 58.25 C188.23414063 58.971875 189.03078125 59.69375 189.8515625 60.4375 C194.27678488 64.44052802 198.78303368 68.34744182 203.3203125 72.22265625 C204.52606676 73.25257479 205.73179523 74.28252353 206.9375 75.3125 C207.8502771 76.09197998 207.8502771 76.09197998 208.78149414 76.88720703 C212.31873858 79.91642533 215.80642577 82.98898583 219.25 86.125 C222.54192205 89.1166816 225.90841307 91.96274423 229.375 94.75 C254.45280294 115.04768119 254.45280294 115.04768119 255.43359375 122.109375 C255.6539547 132.32375307 255.6539547 132.32375307 251.85546875 136.75 C248.76762878 139.65620232 245.48394341 142.29249021 242.15625 144.91796875 C238.82358769 147.63206873 235.69240315 150.49555812 232.5625 153.4375 C227.82472618 157.87672726 222.94122136 162.028991 217.875 166.09375 C214.66400195 168.76958171 211.61220863 171.58108276 208.5625 174.4375 C203.82516582 178.87458061 198.94452839 183.02702308 193.87890625 187.08984375 C190.64427862 189.78611449 187.57197532 192.62167613 184.5 195.5 C168.12710922 210.82487051 168.12710922 210.82487051 157.05078125 210.71875 C153.05811236 210.3429694 150.95941541 209.18585565 148.0625 206.4375 C144.97590127 202.30036013 144.70647627 199.2754219 144.76953125 194.16796875 C144.77377609 193.48696609 144.77802094 192.80596344 144.78239441 192.10432434 C144.7990939 189.94413541 144.83672688 187.78490358 144.875 185.625 C144.89005826 184.15431042 144.90374466 182.68360611 144.91601562 181.21289062 C144.94896786 177.62078643 145.00068827 174.02923674 145.0625 170.4375 C144.1509314 170.46106567 144.1509314 170.46106567 143.22094727 170.48510742 C100.68616973 171.43459808 62.18730622 156.46859426 31.00952148 127.29272461 C14.51046732 111.4992689 2.25035723 91.67325838 -5.9375 70.4375 C-6.37835938 69.30441406 -6.81921875 68.17132813 -7.2734375 67.00390625 C-12.71568945 51.94700919 -15.26523066 36.42678274 -15.4375 20.4375 C-15.45594971 19.42888916 -15.47439941 18.42027832 -15.4934082 17.38110352 C-15.4439308 11.60008546 -14.99905422 7.88851832 -10.9375 3.4375 C-7.30551283 0.616597 -4.56137866 0.0058705 0 0 Z " fill="#ffffff" transform="translate(24.9375,291.5625)"/>
<path d="M0 0 C3.7745744 4.55169265 4.36829198 6.75923287 4.3203125 12.63671875 C4.3174826 13.3205513 4.31465271 14.00438385 4.31173706 14.7089386 C4.30055684 16.88947165 4.27545691 19.06959145 4.25 21.25 C4.23996738 22.72981177 4.23084202 24.20962999 4.22265625 25.68945312 C4.20062481 29.313936 4.16611002 32.93817766 4.125 36.5625 C4.70652832 36.54155273 5.28805664 36.52060547 5.88720703 36.49902344 C49.97707306 35.13604186 87.48172439 51.44691584 119.60546875 81.14453125 C135.51276262 96.41060087 147.23728714 116.10518624 155.125 136.5625 C155.56585938 137.69558594 156.00671875 138.82867187 156.4609375 139.99609375 C161.90318945 155.05299081 164.45273066 170.57321726 164.625 186.5625 C164.64344971 187.57111084 164.66189941 188.57972168 164.6809082 189.61889648 C164.6314308 195.39991454 164.18655422 199.11148168 160.125 203.5625 C156.49301283 206.383403 153.74887866 206.9941295 149.1875 207 C148.18847656 207.01933594 147.18945312 207.03867188 146.16015625 207.05859375 C141.16495553 206.24213237 138.15541322 203.90383095 135.10546875 199.93359375 C134.51378906 198.96550781 133.92210937 197.99742187 133.3125 197 C129.3369656 190.77972469 124.92605319 185.16235621 120.125 179.5625 C119.40441406 178.7065625 118.68382812 177.850625 117.94140625 176.96875 C112.54357765 170.73382499 106.67732494 165.55597116 100.125 160.5625 C99.08730469 159.75941406 98.04960937 158.95632812 96.98046875 158.12890625 C72.07489577 139.31807277 42.38981375 129.32363008 11.328125 127.90356445 C6.32331392 127.66165696 6.32331392 127.66165696 4.125 126.5625 C4.1564209 127.9239917 4.1564209 127.9239917 4.18847656 129.31298828 C4.25690933 132.70127642 4.30692295 136.0888235 4.34472656 139.47753906 C4.36476332 140.94022252 4.39200104 142.40282666 4.42675781 143.86523438 C4.47563225 145.9754601 4.49804659 148.08462136 4.515625 150.1953125 C4.5470459 152.09627686 4.5470459 152.09627686 4.57910156 154.03564453 C4.04256141 158.20277306 2.72970517 160.30833944 0.125 163.5625 C-4.40886902 167.05751196 -8.31682878 167.19727656 -13.890625 167.02734375 C-18.78607785 166.26483212 -21.37703811 163.9202764 -24.875 160.5625 C-26.64534053 158.95778949 -28.41621274 157.35366544 -30.1875 155.75 C-31.59322266 154.45255859 -31.59322266 154.45255859 -33.02734375 153.12890625 C-35.70308836 150.71743271 -38.44063425 148.44071765 -41.25 146.1875 C-46.0464071 142.32031137 -50.5454146 138.21269284 -55.03857422 134.00439453 C-58.38581785 130.88710664 -61.80495906 127.92683518 -65.375 125.0625 C-69.541672 121.71947246 -73.47911992 118.21127683 -77.375 114.5625 C-83.00337023 109.29322827 -88.87508885 104.40535208 -94.875 99.5625 C-96.38419075 98.32361207 -97.88505846 97.07447234 -99.375 95.8125 C-100.28765625 95.04679687 -100.28765625 95.04679687 -101.21875 94.265625 C-105.0194368 90.35737159 -106.30551442 87.05279752 -106.3125 81.625 C-106.13185357 76.33464023 -105.63770162 73.500211 -101.875 69.5625 C-99.29561472 67.35351088 -96.66754202 65.22397797 -94.00390625 63.1171875 C-90.64306317 60.42384373 -87.51190586 57.51077232 -84.375 54.5625 C-79.63720305 50.12329493 -74.7537239 45.97101104 -69.6875 41.90625 C-66.47650195 39.23041829 -63.42470863 36.41891724 -60.375 33.5625 C-55.63633536 29.12417326 -50.75380674 24.9710775 -45.6875 20.90625 C-42.47639393 18.23032827 -39.42595725 15.41770503 -36.375 12.5625 C-11.95579401 -10.13643405 -11.95579401 -10.13643405 0 0 Z " fill="#ffffff" transform="translate(337.875,13.4375)"/>
<path d="M0 0 C2.86900162 1.42603768 5.18353668 3.09937937 7.7109375 5.06640625 C24.61631053 17.5587301 45.29618219 22.89895418 66.171875 20.859375 C83.43442229 18.16331424 98.6480692 11.80131305 111.796875 0.1875 C113.6484375 -0.68359375 113.6484375 -0.68359375 115.984375 -0.1484375 C119.27556299 1.66123331 122.06995192 3.87106716 124.8984375 6.31640625 C125.46981445 6.80842529 126.04119141 7.30044434 126.62988281 7.80737305 C145.39947432 24.23735976 158.40180385 47.40749201 161.6484375 72.31640625 C161.82501944 76.15956071 161.8600564 80.00086189 161.88671875 83.84765625 C161.8947905 84.95693481 161.90286224 86.06621338 161.91117859 87.20910645 C161.92497459 89.54905656 161.93571667 91.88902642 161.94360352 94.22900391 C161.9551598 96.62066547 161.97566847 99.01230053 162.00512695 101.40380859 C162.04773613 104.8644356 162.0639601 108.32429975 162.07421875 111.78515625 C162.09172684 112.85092896 162.10923492 113.91670166 162.12727356 115.01477051 C162.10999784 120.92716845 161.8548903 124.7770493 157.6484375 129.31640625 C153.48513281 132.4693722 149.85520181 132.74580916 144.79847717 132.7040863 C144.01439639 132.70947184 143.23031561 132.71485738 142.4224748 132.72040612 C139.79849809 132.73469908 137.17502489 132.72757877 134.55102539 132.72045898 C132.6684173 132.72616185 130.78581267 132.73312579 128.9032135 132.74125671 C123.7916497 132.75921237 118.68025734 132.75801521 113.56867146 132.75231433 C109.30166492 132.74922597 105.03469148 132.755311 100.76768965 132.76135308 C90.70162517 132.77540459 80.63564555 132.77383178 70.56958008 132.76245117 C60.18407302 132.7509689 49.79882415 132.7650461 39.41335112 132.79184765 C30.49686363 132.81399689 21.58045723 132.82064378 12.66394418 132.81477123 C7.33843615 132.81139866 2.01309363 132.81383677 -3.31239128 132.83102226 C-8.32016225 132.84647691 -13.3275504 132.84255221 -18.33530617 132.82371712 C-20.1727173 132.82002716 -22.0101567 132.82315155 -23.84754181 132.83360291 C-26.35700968 132.8467869 -28.86520537 132.8352891 -31.37461853 132.81761169 C-32.10079296 132.8272167 -32.82696738 132.83682171 -33.57514709 132.84671777 C-38.61807158 132.77368462 -41.44633882 131.44633048 -45.3515625 128.31640625 C-49.47992682 123.71515359 -48.80172407 118.11879444 -48.78515625 112.26953125 C-48.7903981 111.18492615 -48.79563995 110.10032104 -48.80104065 108.98284912 C-48.80746178 106.68307346 -48.8061227 104.38326496 -48.79760742 102.08349609 C-48.78919306 98.62014447 -48.81770316 95.15849718 -48.84960938 91.6953125 C-48.94573959 61.24315264 -39.74631285 34.36055186 -18.3515625 12.31640625 C-15.13537941 9.15450474 -11.84276493 6.17057353 -8.3515625 3.31640625 C-7.47177734 2.57197266 -7.47177734 2.57197266 -6.57421875 1.8125 C-4.14421918 -0.06101112 -3.03105455 -0.88112051 0 0 Z " fill="#ffffff" transform="translate(350.3515625,379.68359375)"/>
<path d="M0 0 C2.86900162 1.42603768 5.18353668 3.09937937 7.7109375 5.06640625 C24.61631053 17.5587301 45.29618219 22.89895418 66.171875 20.859375 C83.43442229 18.16331424 98.6480692 11.80131305 111.796875 0.1875 C113.6484375 -0.68359375 113.6484375 -0.68359375 115.984375 -0.1484375 C119.27556299 1.66123331 122.06995192 3.87106716 124.8984375 6.31640625 C125.46981445 6.80842529 126.04119141 7.30044434 126.62988281 7.80737305 C145.39947432 24.23735976 158.40180385 47.40749201 161.6484375 72.31640625 C161.82501944 76.15956071 161.8600564 80.00086189 161.88671875 83.84765625 C161.8947905 84.95693481 161.90286224 86.06621338 161.91117859 87.20910645 C161.92497459 89.54905656 161.93571667 91.88902642 161.94360352 94.22900391 C161.9551598 96.62066547 161.97566847 99.01230053 162.00512695 101.40380859 C162.04773613 104.8644356 162.0639601 108.32429975 162.07421875 111.78515625 C162.09172684 112.85092896 162.10923492 113.91670166 162.12727356 115.01477051 C162.10999784 120.92716845 161.8548903 124.7770493 157.6484375 129.31640625 C153.48513281 132.4693722 149.85520181 132.74580916 144.79847717 132.7040863 C144.01439639 132.70947184 143.23031561 132.71485738 142.4224748 132.72040612 C139.79849809 132.73469908 137.17502489 132.72757877 134.55102539 132.72045898 C132.6684173 132.72616185 130.78581267 132.73312579 128.9032135 132.74125671 C123.7916497 132.75921237 118.68025734 132.75801521 113.56867146 132.75231433 C109.30166492 132.74922597 105.03469148 132.755311 100.76768965 132.76135308 C90.70162517 132.77540459 80.63564555 132.77383178 70.56958008 132.76245117 C60.18407302 132.7509689 49.79882415 132.7650461 39.41335112 132.79184765 C30.49686363 132.81399689 21.58045723 132.82064378 12.66394418 132.81477123 C7.33843615 132.81139866 2.01309363 132.81383677 -3.31239128 132.83102226 C-8.32016225 132.84647691 -13.3275504 132.84255221 -18.33530617 132.82371712 C-20.1727173 132.82002716 -22.0101567 132.82315155 -23.84754181 132.83360291 C-26.35700968 132.8467869 -28.86520537 132.8352891 -31.37461853 132.81761169 C-32.10079296 132.8272167 -32.82696738 132.83682171 -33.57514709 132.84671777 C-38.61807158 132.77368462 -41.44633882 131.44633048 -45.3515625 128.31640625 C-49.47992682 123.71515359 -48.80172407 118.11879444 -48.78515625 112.26953125 C-48.7903981 111.18492615 -48.79563995 110.10032104 -48.80104065 108.98284912 C-48.80746178 106.68307346 -48.8061227 104.38326496 -48.79760742 102.08349609 C-48.78919306 98.62014447 -48.81770316 95.15849718 -48.84960938 91.6953125 C-48.94573959 61.24315264 -39.74631285 34.36055186 -18.3515625 12.31640625 C-15.13537941 9.15450474 -11.84276493 6.17057353 -8.3515625 3.31640625 C-7.47177734 2.57197266 -7.47177734 2.57197266 -6.57421875 1.8125 C-4.14421918 -0.06101112 -3.03105455 -0.88112051 0 0 Z " fill="#ffffff" transform="translate(48.3515625,117.68359375)"/>
<path d="M0 0 C0.77988281 0.350625 1.55976563 0.70125 2.36328125 1.0625 C17.01898594 8.3523842 25.82267656 21.13990687 31.1171875 36.171875 C33.90821583 48.27456423 33.4263835 62.77238414 28 74 C27.649375 74.77988281 27.29875 75.55976563 26.9375 76.36328125 C19.6476158 91.01898594 6.86009313 99.82267656 -8.171875 105.1171875 C-20.20020677 107.89106809 -34.87918201 107.51958367 -46 102 C-47.01191406 101.50242187 -48.02382813 101.00484375 -49.06640625 100.4921875 C-63.42741266 92.76348568 -71.78446232 81.24541783 -77 66 C-80.38179701 54.31714673 -79.2384695 38.83880697 -74 28 C-73.649375 27.22011719 -73.29875 26.44023437 -72.9375 25.63671875 C-65.6476158 10.98101406 -52.86009313 2.17732344 -37.828125 -3.1171875 C-25.72543577 -5.90821583 -11.22761586 -5.4263835 0 0 Z " fill="#ffffff" transform="translate(430,266)"/>
<path d="M0 0 C0.77988281 0.350625 1.55976563 0.70125 2.36328125 1.0625 C17.01898594 8.3523842 25.82267656 21.13990687 31.1171875 36.171875 C33.90821583 48.27456423 33.4263835 62.77238414 28 74 C27.649375 74.77988281 27.29875 75.55976562 26.9375 76.36328125 C19.6476158 91.01898594 6.86009313 99.82267656 -8.171875 105.1171875 C-20.20020677 107.89106809 -34.87918201 107.51958367 -46 102 C-47.01191406 101.50242187 -48.02382812 101.00484375 -49.06640625 100.4921875 C-63.42741266 92.76348568 -71.78446232 81.24541783 -77 66 C-80.38179701 54.31714673 -79.2384695 38.83880697 -74 28 C-73.649375 27.22011719 -73.29875 26.44023437 -72.9375 25.63671875 C-65.6476158 10.98101406 -52.86009313 2.17732344 -37.828125 -3.1171875 C-25.72543577 -5.90821583 -11.22761586 -5.4263835 0 0 Z " fill="#ffffff" transform="translate(128,4)"/>
</svg>
