<?xml version="1.0" encoding="UTF-8"?>
<svg version="1.1" xmlns="http://www.w3.org/2000/svg" width="512" height="512">
<path d="M0 0 C11.48548012 7.25241807 22.76577881 7.87345252 35.95874023 7.71655273 C38.63132324 7.6874311 41.30193316 7.69601853 43.97460938 7.70898438 C59.15307338 7.69026798 70.40795302 4.65402105 83.15942383 -3.85766602 C98.47890163 -14.05829739 114.5864312 -20.432077 132.4375 -24.75 C133.4996875 -25.01683594 134.561875 -25.28367187 135.65625 -25.55859375 C160.83549899 -30.80427062 186.78806038 -25.0567384 208.4375 -11.75 C234.18197478 5.88236323 250.30758079 31.49034856 263.49902344 59.27832031 C264.11660186 60.57581339 264.74206467 61.86958785 265.37597656 63.15917969 C284.30866921 101.78813791 294.45452232 147.18403875 294.640625 190.06640625 C294.65107849 191.69709801 294.65107849 191.69709801 294.66174316 193.36073303 C294.6790232 196.84469525 294.68546127 200.32849674 294.6875 203.8125 C294.68850708 205.00018982 294.68951416 206.18787964 294.69055176 207.41156006 C294.68070473 224.5480008 294.39936543 241.33042203 291.4375 258.25 C291.21271973 259.58708008 291.21271973 259.58708008 290.98339844 260.95117188 C287.89064751 278.82477704 282.84810597 296.15791317 267.4375 307.25 C257.21141984 313.60890755 245.2868446 315.01277051 233.515625 312.66796875 C216.5701814 307.17824664 202.67141517 293.48725355 189.94042969 281.63525391 C188.48807929 280.29661905 187.0138905 278.98179801 185.5390625 277.66796875 C176.97531559 270.01110657 169.20373658 261.70647345 161.4375 253.25 C160.38701835 252.11300438 159.33625616 250.97626785 158.28515625 249.83984375 C155.6543503 246.9900243 153.04242399 244.12351681 150.4375 241.25 C149.70144531 240.44304687 148.96539062 239.63609375 148.20703125 238.8046875 C147.56121094 238.08539063 146.91539062 237.36609375 146.25 236.625 C145.69957031 236.01398438 145.14914062 235.40296875 144.58203125 234.7734375 C143.4375 233.25 143.4375 233.25 143.4375 231.25 C142.86257813 230.9715625 142.28765625 230.693125 141.6953125 230.40625 C139.4375 229.25 139.4375 229.25 137.4296875 228.03125 C136.73101562 227.6084375 136.03234375 227.185625 135.3125 226.75 C134.62929688 226.3271875 133.94609375 225.904375 133.2421875 225.46875 C124.13472528 221.51118982 114.23664655 221.96315777 104.49804688 221.99121094 C102.90690451 221.98849622 101.3157634 221.9849326 99.72462463 221.98059082 C95.4291961 221.9715217 91.13386431 221.97498834 86.83843422 221.98134899 C82.32811867 221.98643748 77.81781102 221.98170965 73.30749512 221.97857666 C65.73541793 221.97494529 58.16337984 221.97971432 50.59130859 221.98925781 C41.85599048 222.00014076 33.12076574 221.99661459 24.38544989 221.985605 C16.86497626 221.97650847 9.34453064 221.9752584 1.82405329 221.98048234 C-2.6586189 221.98358905 -7.1412473 221.98404728 -11.62391663 221.97740936 C-15.83962912 221.97160202 -20.05522203 221.97569439 -24.27092171 221.98719788 C-25.81155766 221.98982642 -27.35220381 221.98911052 -28.89283562 221.98467255 C-43.83480766 221.92388899 -43.83480766 221.92388899 -57.875 226.5625 C-58.65488281 226.95050781 -59.43476563 227.33851563 -60.23828125 227.73828125 C-63.10912719 229.60553735 -65.20751612 231.75895038 -67.5625 234.25 C-68.08851807 234.80421631 -68.61453613 235.35843262 -69.15649414 235.92944336 C-70.92511055 237.79952741 -72.68233488 239.67979034 -74.4375 241.5625 C-75.31728516 242.50125977 -75.31728516 242.50125977 -76.21484375 243.45898438 C-79.20681681 246.66466979 -82.15010135 249.90172305 -85.02734375 253.2109375 C-94.90005324 264.55683605 -105.30969688 275.27629249 -116.5625 285.25 C-117.36558594 286.0028125 -118.16867188 286.755625 -118.99609375 287.53125 C-133.53550744 301.09181975 -149.895003 313.94158493 -170.53515625 313.5234375 C-180.80852799 313.02756627 -189.17467519 309.30747492 -196.5625 302.25 C-197.11421875 301.72664063 -197.6659375 301.20328125 -198.234375 300.6640625 C-216.48563239 281.37794 -217.65953473 245.3817636 -217.765625 220.3125 C-217.77263931 219.2020784 -217.77965363 218.0916568 -217.78688049 216.94758606 C-217.80430051 213.3816824 -217.81073315 209.81594466 -217.8125 206.25 C-217.81317474 205.03347748 -217.81384949 203.81695496 -217.81454468 202.56356812 C-217.79925959 185.25527519 -217.46497118 168.35051068 -214.5625 151.25 C-214.30509033 149.62215576 -214.30509033 149.62215576 -214.04248047 147.96142578 C-205.83248165 96.47835007 -186.57844821 44.57075744 -151.5625 5.25 C-150.91925781 4.52167969 -150.27601563 3.79335937 -149.61328125 3.04296875 C-108.44487053 -40.80451425 -45.37172878 -30.6849264 0 0 Z M115.4375 42.25 C111.44004749 48.43103206 109.55219303 54.86014602 110.4375 62.25 C112.40778624 69.79919455 114.90177138 76.31417565 121.65234375 80.68359375 C129.3153775 85.06779296 135.59177175 86.10831838 144.4375 85.25 C152.26795212 83.00804094 157.97223665 77.95857747 162.4375 71.25 C165.62290892 64.71262483 166.19934528 58.286438 164.4375 51.25 C161.60163151 43.13187004 157.00050051 37.44188554 149.53125 33.15625 C136.9087421 27.56923831 124.21915801 32.41533775 115.4375 42.25 Z M-91.5625 53.25 C-91.5625 65.13 -91.5625 77.01 -91.5625 89.25 C-103.4425 89.25 -115.3225 89.25 -127.5625 89.25 C-131.09195538 97.88248902 -131.09195538 97.88248902 -132.0625 106.25 C-132.0728125 107.136875 -132.083125 108.02375 -132.09375 108.9375 C-131.30131295 113.87857809 -129.27265718 118.54706776 -127.5625 123.25 C-116.3425 123.25 -105.1225 123.25 -93.5625 123.25 C-93.9375 140 -93.9375 140 -94.10302734 145.26855469 C-94.12055754 146.65296655 -94.13584534 148.03740941 -94.1484375 149.421875 C-94.1791333 150.13553223 -94.2098291 150.84918945 -94.24145508 151.58447266 C-94.30949277 153.93915541 -94.30949277 153.93915541 -93.5625 157.25 C-87.75019963 162.23601719 -81.57494602 163.55160305 -74.125 163.125 C-68.89391717 162.52674506 -62.4356556 161.1231556 -58.5625 157.25 C-58.47403166 154.72931819 -58.44715476 152.23545583 -58.46484375 149.71484375 C-58.46585083 149.04747192 -58.46685791 148.3801001 -58.46789551 147.69250488 C-58.47314192 145.1908192 -58.48710309 142.68915794 -58.5 140.1875 C-58.520625 134.598125 -58.54125 129.00875 -58.5625 123.25 C-46.6825 123.25 -34.8025 123.25 -22.5625 123.25 C-18.98476541 114.33587313 -18.98476541 114.33587313 -18 105.6875 C-17.96712891 104.20056641 -17.96712891 104.20056641 -17.93359375 102.68359375 C-18.63803602 97.93746697 -18.63803602 97.93746697 -23.5625 89.25 C-34.7825 89.25 -46.0025 89.25 -57.5625 89.25 C-57.5625 77.7 -57.5625 66.15 -57.5625 54.25 C-64.19060193 51.76446178 -68.86910697 50.12196561 -75.75 50 C-76.60980469 49.97421875 -77.46960938 49.9484375 -78.35546875 49.921875 C-82.87186276 50.38396647 -87.21399573 51.94544872 -91.5625 53.25 Z M184.4375 83.25 C180.23994316 89.77683694 178.81751872 97.08885713 179.73828125 104.75390625 C181.61163319 112.89725245 186.83733047 118.98101506 193.5703125 123.765625 C200.41396713 127.35159901 208.73624556 127.60506746 216.09375 125.484375 C223.8471693 122.22793889 228.60100247 117.6849642 232.4375 110.25 C235.49313794 102.10163217 235.20127613 95.55554206 231.76171875 87.7109375 C227.2805215 79.38304881 221.22983878 75.18077959 212.4375 72.25 C200.98891981 71.10514198 192.05899544 74.52493961 184.4375 83.25 Z M117.4375 116.25 C112.22935149 123.33035876 109.84666264 129.38743963 110.4375 138.25 C112.39966829 146.51707668 116.10173634 153.56326211 123.4375 158.25 C131.16905811 162.23253077 137.45262337 163.54717846 145.9375 161.125 C154.05149659 158.1172254 159.75512484 153.08989551 163.4375 145.25 C166.09284003 138.66475672 166.06944214 131.68176705 163.61328125 125.01171875 C159.84684778 117.10667459 154.68926283 111.48359482 146.31640625 108.4921875 C135.72150985 105.64818884 125.14432168 108.32864153 117.4375 116.25 Z " fill="#ffffff" transform="translate(217.5625,112.75)"/>
</svg>
